<?xml version="1.0" standalone="no"?>
<!DOCTYPE svg PUBLIC "-//W3C//DTD SVG 20010904//EN"
 "http://www.w3.org/TR/2001/REC-SVG-20010904/DTD/svg10.dtd">
<svg version="1.0" xmlns="http://www.w3.org/2000/svg"
 width="462.000000pt" height="377.000000pt" viewBox="0 0 462.000000 377.000000"
 preserveAspectRatio="xMidYMid meet">
<metadata>
Created by potrace 1.13, written by Peter Selinger 2001-2015
</metadata>
<g transform="translate(0.000000,377.000000) scale(0.100000,-0.100000)"
fill="#000000" stroke="none">
<path d="M1420 3760 c-222 -16 -293 -37 -427 -126 -101 -66 -282 -242 -334
-324 -19 -30 -59 -107 -89 -170 -84 -181 -125 -239 -227 -316 -127 -98 -241
-217 -286 -301 -32 -61 -39 -86 -49 -177 -18 -170 8 -289 92 -411 17 -24 81
-98 143 -162 136 -143 202 -230 252 -332 121 -245 316 -434 677 -655 175 -107
871 -447 1073 -524 45 -17 147 -44 229 -61 81 -17 237 -60 346 -96 302 -99
298 -98 640 -99 415 0 517 19 641 119 135 109 235 226 273 319 30 73 29 346
-2 486 -35 161 -45 287 -39 498 7 285 37 394 167 622 103 179 139 340 106 470
-20 81 -53 129 -136 198 -107 90 -162 145 -192 191 -25 41 -28 53 -28 135 0
120 -22 168 -118 258 -113 106 -232 180 -403 249 -142 57 -277 85 -559 114
-135 14 -315 34 -400 45 -373 47 -1040 71 -1350 50z m655 -80 c324 -13 495
-26 735 -55 177 -22 479 -55 502 -55 5 0 2 -7 -7 -17 -15 -14 -47 -16 -250
-17 -175 -1 -237 2 -246 12 -9 8 -47 12 -115 12 -58 0 -106 4 -109 10 -3 6
-39 10 -79 10 -43 0 -89 6 -109 15 -75 31 -450 10 -620 -34 -169 -44 -345
-129 -541 -261 -56 -37 -119 -76 -141 -88 -56 -28 -102 -79 -87 -94 9 -9 16
-5 33 15 11 15 35 35 52 44 18 8 93 55 167 103 236 153 356 209 540 254 183
44 519 62 593 31 21 -8 67 -15 106 -15 38 0 73 -4 76 -10 3 -6 51 -10 109 -10
68 0 106 -4 115 -12 9 -10 73 -13 257 -12 212 1 246 3 262 17 25 22 161 23
245 1 216 -56 489 -221 575 -348 30 -46 32 -53 32 -140 0 -78 4 -100 25 -142
33 -66 92 -130 199 -217 103 -83 135 -133 143 -224 10 -114 -27 -223 -147
-438 -53 -94 -98 -222 -121 -340 -10 -48 -14 -148 -14 -320 0 -237 2 -258 30
-400 25 -126 30 -174 30 -300 0 -144 -1 -152 -28 -207 -46 -93 -234 -279 -319
-316 -15 -6 -69 -19 -120 -29 -75 -14 -149 -17 -383 -17 -336 1 -336 1 -634
99 -108 35 -263 78 -346 95 -205 43 -413 132 -995 426 -509 257 -777 478 -917
759 -50 99 -91 161 -164 246 -27 31 -49 60 -49 63 0 8 48 -2 77 -16 30 -15 41
-3 19 21 -11 12 -38 21 -74 26 -55 6 -60 9 -137 88 -132 135 -172 237 -161
412 5 87 10 109 42 173 53 109 155 208 259 252 76 32 88 34 229 40 107 3 151
9 154 18 5 15 -254 17 -308 2 l-34 -10 46 48 c60 62 104 132 168 272 29 63 69
140 89 170 80 123 266 286 396 350 131 64 409 81 950 60z"/>
<path d="M2085 3460 c-131 -13 -226 -28 -290 -45 -33 -9 -76 -20 -95 -25 -108
-26 -250 -93 -377 -177 -54 -36 -193 -175 -193 -193 0 -23 26 -5 108 78 144
143 337 238 602 296 167 36 390 53 495 36 39 -6 90 -14 115 -17 25 -3 51 -10
58 -15 24 -20 150 -30 426 -35 237 -3 284 -2 311 12 24 11 65 15 143 15 63 0
113 4 117 10 10 16 91 12 105 -5 23 -27 69 -57 80 -50 13 8 -6 45 -24 45 -7 0
-23 12 -35 26 -21 24 -27 25 -84 20 -34 -4 -117 -10 -183 -14 -71 -5 -128 -13
-137 -20 -11 -10 -80 -12 -288 -9 -275 4 -401 15 -422 36 -6 6 -31 11 -55 11
-24 0 -52 4 -62 10 -25 13 -219 20 -315 10z"/>
<path d="M1870 3317 c-19 -8 -66 -17 -104 -21 -88 -9 -194 -50 -284 -109 -115
-77 -247 -217 -204 -217 4 0 37 30 72 66 127 128 261 205 392 225 40 5 91 15
113 21 83 23 358 18 494 -8 47 -9 37 15 -13 33 -58 20 -420 27 -466 10z"/>
<path d="M3250 3265 c-19 -7 -70 -14 -113 -14 -43 -1 -88 -6 -100 -13 -12 -6
-38 -14 -57 -18 -22 -3 -36 -12 -38 -23 -3 -14 2 -16 30 -11 18 4 48 13 67 20
18 8 63 14 99 14 36 0 92 7 125 17 50 14 70 15 132 5 138 -22 270 -99 298
-174 9 -24 17 -56 19 -72 5 -47 28 -45 28 2 0 57 -32 124 -76 160 -112 93
-315 145 -414 107z"/>
<path d="M1710 3006 c-14 -9 -45 -16 -70 -16 -32 0 -64 -11 -110 -35 -35 -19
-73 -35 -84 -35 -25 0 -108 -86 -136 -140 -16 -31 -18 -45 -10 -60 6 -11 17
-20 24 -20 7 0 21 -10 32 -21 32 -36 62 -42 100 -20 73 44 344 65 491 40 45
-8 78 -21 111 -45 26 -19 60 -39 76 -45 15 -7 48 -22 73 -35 56 -31 70 -30
113 6 19 17 40 30 46 30 16 0 84 77 84 94 0 8 -24 43 -54 77 -50 57 -100 93
-186 135 -19 9 -51 25 -70 34 -19 10 -51 21 -70 25 -19 4 -45 15 -58 23 -35
23 -267 29 -302 8z m274 -85 c3 -5 26 -14 51 -20 26 -6 63 -20 83 -31 20 -11
41 -20 46 -20 16 0 99 -55 147 -99 39 -34 47 -47 38 -57 -6 -8 -16 -14 -21
-14 -6 0 -23 -9 -39 -21 l-30 -21 -44 21 c-25 12 -47 21 -50 21 -4 0 -27 16
-52 35 -47 36 -125 65 -175 65 l-28 0 20 32 c11 18 22 52 26 75 6 41 16 53 28
34z"/>
<path d="M3225 2884 c-126 -40 -179 -69 -220 -120 -22 -27 -47 -60 -56 -73
l-15 -25 -47 23 c-54 26 -87 21 -87 -13 0 -28 16 -43 84 -76 l51 -25 5 -101
c4 -86 9 -106 30 -138 25 -36 102 -96 125 -96 21 0 65 -41 65 -59 0 -10 -9
-26 -20 -36 -10 -9 -27 -40 -36 -67 -20 -61 -78 -120 -140 -144 -44 -17 -44
-17 -83 10 -33 23 -43 26 -60 16 -12 -6 -21 -19 -21 -28 0 -23 46 -67 84 -82
89 -33 250 70 290 186 16 46 54 100 71 99 5 0 8 -15 6 -33 -3 -39 13 -62 44
-62 23 0 35 17 35 51 0 23 13 25 30 4 7 -8 18 -15 25 -15 7 0 18 -7 25 -15 7
-9 29 -15 51 -15 21 0 40 -4 44 -9 8 -15 93 -60 99 -53 13 12 4 22 -48 56 -36
25 -64 36 -90 36 -20 0 -36 4 -36 9 0 5 -10 13 -22 17 -36 11 -78 46 -78 65 0
22 -37 49 -67 49 -14 0 -37 16 -59 40 -22 24 -52 45 -75 52 -23 6 -54 27 -74
50 -34 37 -35 40 -35 122 l0 84 33 5 c39 6 125 34 152 50 22 13 107 23 285 36
126 8 179 26 213 72 27 37 16 59 -47 103 -72 50 -100 56 -251 61 -101 4 -141
1 -180 -11z m279 -74 c32 -5 70 -17 83 -26 42 -27 13 -38 -115 -45 -64 -3
-125 -9 -136 -14 -16 -7 -17 -6 -7 13 6 11 11 34 11 51 0 31 1 31 53 31 28 0
78 -4 111 -10z"/>
<path d="M3786 2751 c-20 -22 -4 -40 19 -21 18 15 59 6 96 -21 33 -23 38 -24
54 -2 10 14 30 16 115 16 l103 -1 43 -50 c24 -28 67 -61 99 -77 48 -25 57 -34
66 -69 6 -22 19 -51 30 -64 24 -31 26 -127 4 -156 -8 -11 -15 -38 -15 -60 0
-88 -43 -154 -113 -174 -60 -18 -167 -74 -167 -88 0 -20 8 -18 86 20 38 18 85
38 105 45 70 23 104 76 116 181 3 25 12 54 19 65 22 31 18 147 -5 176 -10 14
-25 44 -32 68 -9 32 -23 49 -51 67 -21 13 -43 24 -49 24 -7 0 -38 27 -70 60
-55 58 -60 60 -111 62 -88 3 -183 -4 -189 -14 -4 -6 -22 -1 -45 11 -48 26 -86
27 -108 2z"/>
<path d="M560 2750 c-60 -6 -101 -18 -157 -43 -12 -5 -39 -34 -60 -64 -21 -30
-51 -70 -67 -89 -26 -32 -29 -43 -37 -153 -17 -227 20 -407 97 -472 23 -19
136 -69 156 -69 8 0 19 -5 26 -12 6 -6 15 -8 19 -4 13 12 -13 40 -43 47 -45
10 -127 48 -150 70 -60 56 -91 236 -75 443 7 102 9 110 34 128 15 11 27 25 27
32 0 13 46 78 73 105 8 7 39 22 68 33 45 16 83 20 218 21 109 1 166 6 168 13
7 20 -165 28 -297 14z"/>
<path d="M722 2649 c-74 -10 -174 -61 -217 -112 -117 -137 -142 -329 -63 -487
27 -53 37 -65 57 -65 43 0 48 27 17 90 -37 75 -49 154 -35 230 43 243 275 338
516 213 43 -23 94 -49 113 -59 112 -56 278 -86 382 -70 88 15 195 70 268 139
66 64 77 97 35 108 -20 5 -35 -4 -81 -44 -117 -105 -222 -140 -358 -121 -98
13 -149 29 -251 82 -141 72 -153 77 -202 86 -76 15 -124 18 -181 10z"/>
<path d="M4104 2616 c-8 -20 3 -36 23 -36 25 0 98 -38 119 -61 15 -17 18 -34
16 -86 -2 -46 2 -73 13 -89 29 -45 20 -85 -32 -136 -27 -25 -57 -48 -67 -50
-33 -5 -31 -28 2 -28 22 0 42 13 85 59 52 54 57 63 57 105 0 28 -6 51 -16 61
-13 13 -15 28 -11 72 9 86 -15 124 -103 165 -25 11 -53 24 -63 29 -12 7 -19 5
-23 -5z"/>
<path d="M3870 2519 c-84 -13 -144 -48 -171 -101 -20 -40 -21 -40 -65 -34 -24
3 -66 17 -94 31 -60 30 -76 31 -90 5 -16 -31 2 -54 67 -83 77 -34 128 -42 196
-27 54 11 56 12 59 47 4 50 36 70 133 84 98 13 137 8 180 -26 40 -30 70 -32
84 -7 13 25 -8 55 -62 89 -48 30 -131 38 -237 22z"/>
<path d="M842 2464 c-13 -9 -22 -26 -22 -40 0 -13 -13 -51 -29 -82 -36 -71
-123 -135 -170 -126 -29 6 -61 -15 -61 -40 0 -45 105 -56 157 -17 18 14 35 23
37 20 2 -2 20 -36 39 -76 l36 -71 -23 -16 c-37 -24 -23 -53 39 -83 37 -19 57
-36 69 -60 34 -71 186 -291 258 -373 320 -364 679 -554 1196 -631 203 -30 641
-38 852 -14 289 32 575 95 654 145 73 46 139 172 172 323 7 34 19 132 25 217
12 142 11 168 -8 312 -16 117 -27 170 -46 210 -15 30 -33 95 -42 153 -17 104
-26 125 -55 125 -27 0 -37 -19 -48 -100 -18 -120 -38 -174 -87 -231 -25 -29
-45 -56 -45 -60 0 -12 -158 -78 -261 -108 -166 -49 -266 -63 -487 -68 -290 -8
-521 21 -847 106 -323 84 -601 189 -1096 413 l-156 70 5 48 c4 40 1 50 -15 59
-15 7 -25 6 -41 -5z m191 -253 c83 -38 183 -82 221 -98 l69 -29 -2 -94 c-1
-52 3 -110 8 -127 5 -18 8 -33 5 -33 -2 0 -55 25 -117 56 -61 31 -150 71 -197
89 l-85 32 -54 105 -54 104 23 32 c13 18 25 32 27 32 2 0 72 -31 156 -69z
m552 -234 c77 -30 199 -73 270 -96 72 -23 136 -44 144 -47 11 -3 10 -9 -3 -29
-9 -14 -16 -45 -16 -71 0 -28 -6 -54 -15 -64 -14 -16 -24 -15 -138 20 -67 21
-153 41 -192 45 -67 8 -72 10 -127 63 -68 64 -98 121 -98 183 0 48 7 63 24 55
6 -3 74 -29 151 -59z m2258 -92 c9 -20 17 -42 17 -51 0 -8 6 -25 14 -37 8 -12
18 -45 21 -72 l7 -50 -45 -22 -45 -22 5 60 c4 42 1 78 -12 120 -16 51 -16 63
-5 84 18 33 23 32 43 -10z m-2528 -205 c17 -96 17 -131 -1 -151 -9 -10 -24
-19 -33 -19 -23 0 -146 156 -234 296 l-26 42 144 -67 c139 -64 144 -67 150
-101z m2391 86 c19 -28 18 -120 -1 -136 -8 -7 -15 -18 -15 -26 0 -7 -19 -18
-42 -24 -24 -6 -51 -13 -60 -16 -14 -4 -18 1 -18 20 0 15 -4 34 -9 44 -19 38
-30 69 -34 103 l-5 37 81 29 c80 29 82 29 85 9 2 -11 10 -29 18 -40z m-1512
18 c33 -9 128 -29 210 -44 86 -16 152 -34 157 -42 5 -7 9 -50 9 -96 l0 -82
-72 6 c-208 16 -463 73 -438 98 5 5 10 34 10 63 0 38 4 55 15 59 8 4 15 17 15
30 0 29 11 30 94 8z m1236 -91 c0 -25 6 -54 14 -62 7 -9 16 -32 19 -52 l5 -36
-121 -11 c-67 -7 -150 -13 -184 -16 l-63 -4 0 63 c0 35 -4 67 -10 70 -15 10
-12 45 4 45 27 0 240 30 276 39 59 15 60 15 60 -36z m-573 -3 l113 0 6 -40 c4
-22 11 -43 15 -46 5 -3 9 -25 9 -50 l0 -44 -162 2 -163 3 -3 94 -3 94 38 -7
c21 -3 89 -6 150 -6z m-1139 -166 c30 -14 84 -33 120 -43 l67 -18 3 -65 c3
-61 1 -67 -28 -98 -27 -29 -45 -74 -64 -162 -4 -16 -10 -28 -14 -28 -4 0 -49
24 -100 53 -97 56 -225 147 -305 217 l-48 43 35 23 c43 30 60 78 53 155 l-5
57 117 -55 c64 -30 140 -66 169 -79z m434 -135 c79 -29 181 -62 227 -75 46
-13 87 -26 90 -30 3 -3 7 -56 9 -118 3 -93 1 -116 -12 -129 -20 -20 -20 -26 0
-49 14 -15 15 -20 3 -34 -16 -19 -64 -15 -244 22 -211 43 -315 82 -315 120 0
7 7 25 15 41 8 15 17 40 20 55 3 14 17 40 31 58 23 27 26 40 28 110 0 44 2 80
3 80 2 0 67 -23 145 -51z m691 -155 l105 -7 4 -34 c2 -20 -1 -38 -9 -45 -8 -6
-13 -33 -13 -69 0 -32 -4 -61 -10 -64 -5 -3 -10 -19 -10 -35 0 -60 0 -60 -151
-60 -128 0 -139 1 -149 20 -6 11 -19 20 -29 20 -26 0 -32 10 -16 27 12 11 15
44 15 147 l0 133 79 -13 c43 -7 126 -16 184 -20z m927 18 c0 -5 -7 -17 -15
-28 -8 -10 -15 -31 -15 -46 0 -16 -5 -28 -11 -28 -6 0 -9 -10 -7 -22 4 -28 47
-52 65 -36 8 6 16 8 19 5 9 -9 -22 -37 -41 -37 -8 0 -18 -7 -21 -15 -4 -10
-20 -15 -45 -15 -22 0 -48 -6 -59 -12 -31 -19 -48 3 -30 39 37 78 45 93 52 93
5 0 8 11 8 25 0 14 4 25 9 25 5 0 11 10 13 22 2 16 12 25 33 29 44 10 45 10
45 1z m-211 -62 c-10 -21 -19 -44 -19 -51 0 -7 -11 -27 -24 -44 -29 -37 -44
-85 -27 -85 6 0 11 -4 11 -9 0 -6 -20 -13 -45 -17 -25 -3 -48 -10 -51 -15 -7
-13 -61 -11 -69 2 -4 5 0 18 9 28 9 10 16 22 16 28 0 10 21 59 41 95 5 10 9
29 9 42 0 26 16 36 59 36 15 0 31 4 37 9 9 9 35 17 61 20 7 1 4 -14 -8 -39z
m-249 6 c0 -14 -4 -28 -10 -31 -5 -3 -10 -17 -10 -29 0 -13 -7 -29 -15 -36 -8
-7 -15 -18 -15 -24 0 -7 -11 -36 -25 -64 -18 -37 -31 -52 -45 -52 -11 0 -23
-6 -25 -13 -4 -8 -28 -12 -81 -11 -79 2 -100 9 -71 25 13 8 17 24 17 74 0 35
5 67 10 70 6 3 10 19 10 35 0 19 10 38 27 55 26 23 34 25 130 25 103 0 103 0
103 -24z"/>
<path d="M2034 2288 c-4 -6 -2 -14 4 -16 21 -7 13 -28 -20 -52 -30 -22 -35
-23 -170 -16 -147 7 -178 1 -178 -34 0 -24 13 -26 30 -5 10 12 36 14 161 8
139 -6 151 -5 169 13 10 10 26 25 35 32 18 15 20 53 3 70 -15 15 -25 15 -34 0z"/>
<path d="M2221 2275 c-18 -8 -41 -15 -51 -15 -48 0 -83 -127 -60 -212 19 -68
107 -113 141 -72 16 19 3 43 -32 61 -30 16 -41 47 -33 98 7 50 34 65 133 74
75 7 97 27 67 60 -15 17 -31 21 -75 21 -31 -1 -71 -7 -90 -15z"/>
<path d="M2380 2119 c-39 -16 -60 -40 -60 -69 0 -52 48 -68 76 -25 21 32 77
34 131 5 42 -22 69 -25 107 -10 52 19 22 87 -33 73 -13 -3 -29 1 -41 12 -23
21 -142 31 -180 14z"/>
<path d="M1010 1098 c0 -14 1 -15 210 -131 358 -199 567 -282 940 -372 493
-119 871 -165 1358 -165 l244 0 61 36 c34 19 76 45 94 57 17 12 55 36 84 52
91 52 99 64 99 145 0 56 -3 70 -15 70 -12 0 -15 -14 -15 -70 0 -68 -1 -70 -32
-86 -18 -9 -46 -27 -61 -40 -16 -13 -34 -24 -41 -24 -8 0 -26 -10 -42 -22 -16
-13 -53 -38 -82 -55 l-54 -33 -242 0 c-132 0 -293 5 -356 11 -63 5 -171 14
-240 19 -240 16 -801 132 -1065 218 -180 60 -485 204 -739 351 -94 54 -106 58
-106 39z"/>
<path d="M1242 1098 c2 -6 22 -17 44 -23 21 -7 73 -32 114 -55 255 -147 712
-328 996 -395 90 -22 128 -25 284 -25 114 0 219 -6 287 -16 83 -13 154 -15
308 -11 179 4 210 8 290 32 49 14 116 40 148 57 82 44 202 178 159 178 -4 0
-31 -27 -60 -60 -42 -47 -71 -69 -135 -99 -129 -62 -178 -72 -397 -78 -149 -4
-222 -1 -310 11 -69 10 -184 16 -290 16 -135 0 -194 5 -260 19 -251 56 -581
183 -910 348 -207 104 -278 131 -268 101z"/>
<path d="M2560 735 c0 -13 49 -15 385 -15 336 0 385 2 385 15 0 13 -49 15
-385 15 -336 0 -385 -2 -385 -15z"/>
</g>
</svg>
